# Blender 4.5.2 LTS
# www.blender.org
mtllib Untitled.mtl
o Cone
v 0.000000 -1.000000 -1.000000
v 0.258819 -1.000000 -0.965926
v 0.500000 -1.000000 -0.866025
v 0.707107 -1.000000 -0.707107
v 0.866025 -1.000000 -0.500000
v 0.965926 -1.000000 -0.258819
v 1.000000 -1.000000 0.000000
v 0.965926 -1.000000 0.258819
v 0.866025 -1.000000 0.500000
v 0.707107 -1.000000 0.707107
v 0.500000 -1.000000 0.866025
v 0.258819 -1.000000 0.965926
v 0.000000 -1.000000 1.000000
v -0.258819 -1.000000 0.965926
v -0.500000 -1.000000 0.866025
v -0.707107 -1.000000 0.707107
v -0.866025 -1.000000 0.500000
v -0.965926 -1.000000 0.258819
v -1.000000 -1.000000 0.000000
v -0.965926 -1.000000 -0.258819
v -0.866025 -1.000000 -0.500000
v -0.707107 -1.000000 -0.707107
v -0.500000 -1.000000 -0.866025
v -0.258819 -1.000000 -0.965926
v 0.000000 1.000000 0.000000
vn -0.0000 -0.4964 -0.8681
vn 0.2247 -0.4964 -0.8385
vn 0.4341 -0.4964 -0.7518
vn 0.6138 -0.4964 -0.6138
vn 0.7518 -0.4964 -0.4341
vn 0.8385 -0.4964 -0.2247
vn 0.8681 -0.4964 -0.0000
vn 0.8385 -0.4964 0.2247
vn 0.7518 -0.4964 0.4341
vn 0.6138 -0.4964 0.6138
vn 0.4341 -0.4964 0.7518
vn 0.2247 -0.4964 0.8385
vn -0.0000 -0.4964 0.8681
vn -0.2247 -0.4964 0.8385
vn -0.4341 -0.4964 0.7518
vn -0.6138 -0.4964 0.6138
vn -0.7518 -0.4964 0.4341
vn -0.8385 -0.4964 0.2247
vn -0.8681 -0.4964 -0.0000
vn -0.8385 -0.4964 -0.2247
vn -0.7518 -0.4964 -0.4341
vn -0.6138 -0.4964 -0.6138
vn -0.4341 -0.4964 -0.7518
vn -0.2247 -0.4964 -0.8385
vn -0.0000 1.0000 -0.0000
vt 0.250000 0.490000
vt 0.250000 0.250000
vt 0.312117 0.481822
vt 0.370000 0.457846
vt 0.419706 0.419706
vt 0.457846 0.370000
vt 0.481822 0.312117
vt 0.490000 0.250000
vt 0.481822 0.187883
vt 0.457846 0.130000
vt 0.419706 0.080294
vt 0.370000 0.042154
vt 0.312117 0.018178
vt 0.250000 0.010000
vt 0.187883 0.018178
vt 0.130000 0.042154
vt 0.080294 0.080294
vt 0.042154 0.130000
vt 0.018178 0.187883
vt 0.010000 0.250000
vt 0.018178 0.312117
vt 0.042154 0.370000
vt 0.080294 0.419706
vt 0.130000 0.457846
vt 0.750000 0.490000
vt 0.812117 0.481822
vt 0.870000 0.457846
vt 0.919706 0.419706
vt 0.957846 0.370000
vt 0.981822 0.312117
vt 0.990000 0.250000
vt 0.981822 0.187883
vt 0.957846 0.130000
vt 0.919706 0.080294
vt 0.870000 0.042154
vt 0.812117 0.018178
vt 0.750000 0.010000
vt 0.687883 0.018178
vt 0.630000 0.042154
vt 0.580294 0.080294
vt 0.542154 0.130000
vt 0.518178 0.187883
vt 0.510000 0.250000
vt 0.518178 0.312117
vt 0.542154 0.370000
vt 0.580294 0.419706
vt 0.630000 0.457846
vt 0.687883 0.481822
vt 0.187883 0.481822
s 1
f 1/1/1 25/2/25 2/3/2
f 2/3/2 25/2/25 3/4/3
f 3/4/3 25/2/25 4/5/4
f 4/5/4 25/2/25 5/6/5
f 5/6/5 25/2/25 6/7/6
f 6/7/6 25/2/25 7/8/7
f 7/8/7 25/2/25 8/9/8
f 8/9/8 25/2/25 9/10/9
f 9/10/9 25/2/25 10/11/10
f 10/11/10 25/2/25 11/12/11
f 11/12/11 25/2/25 12/13/12
f 12/13/12 25/2/25 13/14/13
f 13/14/13 25/2/25 14/15/14
f 14/15/14 25/2/25 15/16/15
f 15/16/15 25/2/25 16/17/16
f 16/17/16 25/2/25 17/18/17
f 17/18/17 25/2/25 18/19/18
f 18/19/18 25/2/25 19/20/19
f 19/20/19 25/2/25 20/21/20
f 20/21/20 25/2/25 21/22/21
f 21/22/21 25/2/25 22/23/22
f 22/23/22 25/2/25 23/24/23
f 1/25/1 2/26/2 3/27/3 4/28/4 5/29/5 6/30/6 7/31/7 8/32/8 9/33/9 10/34/10 11/35/11 12/36/12 13/37/13 14/38/14 15/39/15 16/40/16 17/41/17 18/42/18 19/43/19 20/44/20 21/45/21 22/46/22 23/47/23 24/48/24
f 23/24/23 25/2/25 24/49/24
f 24/49/24 25/2/25 1/1/1
