# Blender 4.5.2 LTS
# www.blender.org
mtllib Bathroom.mtl
o Plane
v -2.539010 0.000000 1.925179
v 2.539010 0.000000 1.925179
v -2.539010 0.000000 -1.925179
v 2.539010 0.000000 -1.925179
v -2.370801 0.035266 -1.797636
v -2.370801 0.035266 1.797636
v 2.370801 0.035266 1.797636
v 2.370801 0.035266 -1.797636
v -2.539010 0.035266 -1.925179
v -2.539010 0.035266 1.925179
v 2.539010 0.035266 1.925179
v 2.539010 0.035266 -1.925179
v -2.539010 2.214156 -1.925179
v -2.539010 2.214156 1.925179
v 2.539010 2.214156 1.925179
v 2.539010 2.214156 -1.925179
v -2.370801 2.214156 -1.797636
v -2.370801 2.214156 1.797636
v 2.370801 2.214156 1.797636
v 2.370801 2.214156 -1.797636
v -0.396172 0.036355 1.925179
v 0.517679 0.036355 1.925179
v 0.517679 2.036355 1.925179
v -0.396172 2.036355 1.925179
v -0.396172 0.036355 1.797636
v 0.517679 0.036355 1.797636
v -0.396172 2.036355 1.797636
v 0.517679 2.036355 1.797636
vn -0.0000 -1.0000 -0.0000
vn -0.0000 1.0000 -0.0000
vn 1.0000 -0.0000 -0.0000
vn -1.0000 -0.0000 -0.0000
vn -0.0000 -0.0000 -1.0000
vn -0.0000 -0.0000 1.0000
vt 0.000000 0.000000
vt 0.000000 1.000000
vt 1.000000 1.000000
vt 1.000000 0.000000
vt 0.033125 0.033125
vt 0.966875 0.033125
vt 0.966875 0.966875
vt 0.033125 0.966875
vt 0.601945 0.000000
vt 0.421983 0.000000
vt 0.421983 0.000000
vt 0.601945 0.033125
vt 0.601945 0.033125
vt 0.421983 0.033125
vt 0.421983 0.033125
vt 0.625000 0.250000
vt 0.375000 0.500000
vt 0.375000 1.000000
vt 0.625000 0.750000
vt 0.341411 0.500000
vt 0.325468 0.500000
vt 0.325468 0.750000
vt 0.341411 0.750000
vt 0.674532 0.750000
vt 0.674532 0.500000
vt 0.658589 0.500000
vt 0.658589 0.750000
s 0
f 1/1/1 3/2/1 4/3/1 2/4/1
f 6/5/2 7/6/2 8/7/2 5/8/2
f 2/4/3 4/3/3 12/3/3 11/4/3
f 3/2/4 1/1/4 10/1/4 9/2/4
f 4/3/5 3/2/5 9/2/5 12/3/5
f 1/1/6 2/4/6 11/4/6 10/1/6
f 6/5/3 5/8/3 17/8/3 18/5/3
f 8/7/4 7/6/4 19/6/4 20/7/4
f 22/9/6 11/4/6 15/4/6 23/9/6
f 23/9/6 15/4/6 14/1/6 10/1/6 11/4/6 22/9/6 21/10/6 24/11/6
f 12/3/5 9/2/5 13/2/5 16/3/5
f 18/5/2 17/8/2 13/2/2 14/1/2
f 19/6/2 18/5/2 14/1/2 15/4/2
f 20/7/2 19/6/2 15/4/2 16/3/2
f 17/8/2 20/7/2 16/3/2 13/2/2
f 11/4/3 12/3/3 16/3/3 15/4/3
f 5/8/6 8/7/6 20/7/6 17/8/6
f 9/2/4 10/1/4 14/1/4 13/2/4
f 26/12/5 7/6/5 6/5/5 18/5/5 19/6/5 28/13/5 27/14/5 25/15/5
f 19/6/5 7/6/5 26/12/5 28/13/5
f 24/16/3 21/17/3 25/17/3 27/16/3
f 26/18/4 22/18/4 23/19/4 28/19/4
f 25/20/2 21/21/2 22/22/2 26/23/2
f 23/24/1 24/25/1 27/26/1 28/27/1
