# Blender 4.5.2 LTS
# www.blender.org
mtllib Foyer2.mtl
o Plane
v -2.539010 0.000000 1.925179
v 2.539010 0.000000 1.925179
v -2.539010 0.000000 -1.925179
v 2.539010 0.000000 -1.925179
v -2.370801 0.035266 -1.797636
v -2.370801 0.035266 1.797636
v 2.370801 0.035266 1.797636
v 2.370801 0.035266 -1.797636
v -2.539010 0.035266 -1.925179
v -2.539010 0.035266 1.925179
v 2.539010 0.035266 1.925179
v 2.539010 0.035266 -1.925179
v -2.539010 2.214156 -1.925179
v -2.539010 2.214156 1.925179
v 2.539010 2.214156 1.925179
v 2.539010 2.214156 -1.925179
v -2.370801 2.214156 -1.797636
v -2.370801 2.214156 1.797636
v 2.370801 2.214156 1.797636
v 2.370801 2.214156 -1.797636
v -2.370801 0.036355 0.456925
v -2.370801 0.036355 -0.456925
v -2.370801 2.036355 -0.456925
v -2.370801 2.036355 0.456925
v 2.370801 0.036355 0.456925
v 2.370801 0.036355 -0.456925
v 2.370801 2.036355 0.456925
v 2.370801 2.036355 -0.456925
v 2.539010 0.036355 0.456925
v 2.539010 0.036355 -0.456925
v 2.539010 2.036355 -0.456925
v 2.539010 2.036355 0.456925
v -2.539010 0.036355 0.456925
v -2.539010 0.036355 -0.456925
v -2.539010 2.036355 0.456925
v -2.539010 2.036355 -0.456925
v 2.370801 0.036355 0.456818
v 2.370801 2.036355 0.456818
v 2.539010 0.036355 0.456818
v 2.539010 2.036355 0.456818
vn -0.0000 -1.0000 -0.0000
vn -0.0000 1.0000 -0.0000
vn 1.0000 -0.0000 -0.0000
vn -1.0000 -0.0000 -0.0000
vn -0.0000 -0.0000 -1.0000
vn -0.0000 -0.0000 1.0000
vt 0.000000 0.000000
vt 0.000000 1.000000
vt 1.000000 1.000000
vt 1.000000 0.000000
vt 0.033125 0.033125
vt 0.966875 0.033125
vt 0.966875 0.966875
vt 0.033125 0.966875
vt 0.033125 0.381329
vt 0.033125 0.618671
vt 0.033125 0.381329
vt 0.033125 0.618671
vt 0.966875 0.381329
vt 0.966875 0.618671
vt 0.966875 0.618671
vt 0.966875 0.381329
vt 1.000000 0.381329
vt 1.000000 0.618671
vt 1.000000 0.381329
vt 0.000000 0.381329
vt 0.000000 0.618671
vt 0.000000 0.381329
vt 0.375000 0.337458
vt 0.375000 0.338591
vt 0.625000 0.338591
vt 0.625000 0.337458
vt 0.625000 0.911409
vt 0.375000 0.911409
vt 0.375000 0.912542
vt 0.625000 0.912542
vt 0.375000 0.878332
vt 0.375000 0.879465
vt 0.625000 0.879465
vt 0.625000 0.878332
vt 0.245535 0.500000
vt 0.245535 0.750000
vt 0.246668 0.750000
vt 0.246668 0.500000
vt 0.212458 0.750000
vt 0.213591 0.750000
vt 0.213591 0.500000
vt 0.212458 0.500000
vt 0.787542 0.500000
vt 0.786409 0.500000
vt 0.786409 0.750000
vt 0.787542 0.750000
vt 0.754465 0.500000
vt 0.753332 0.500000
vt 0.753332 0.750000
vt 0.754465 0.750000
vt 0.625000 0.371668
vt 0.625000 0.370535
vt 0.375000 0.370535
vt 0.375000 0.371668
s 0
f 1/1/1 3/2/1 4/3/1 2/4/1
f 6/5/2 7/6/2 8/7/2 5/8/2
f 2/4/3 4/3/3 12/3/3 11/4/3
f 3/2/4 1/1/4 10/1/4 9/2/4
f 4/3/5 3/2/5 9/2/5 12/3/5
f 1/1/6 2/4/6 11/4/6 10/1/6
f 21/9/3 6/5/3 5/8/3 22/10/3
f 22/10/3 5/8/3 17/8/3 18/5/3 6/5/3 21/9/3 24/11/3 23/12/3
f 25/13/4 7/6/4 19/6/4 20/7/4 8/7/4 26/14/4 28/15/4 27/16/4
f 8/7/4 7/6/4 25/13/4 26/14/4
f 10/1/6 11/4/6 15/4/6 14/1/6
f 12/3/5 9/2/5 13/2/5 16/3/5
f 18/5/2 17/8/2 13/2/2 14/1/2
f 19/6/2 18/5/2 14/1/2 15/4/2
f 20/7/2 19/6/2 15/4/2 16/3/2
f 17/8/2 20/7/2 16/3/2 13/2/2
f 29/17/3 11/4/3 12/3/3 30/18/3
f 30/18/3 12/3/3 16/3/3 15/4/3 11/4/3 29/17/3 32/19/3 31/18/3
f 5/8/6 8/7/6 20/7/6 17/8/6
f 33/20/4 10/1/4 14/1/4 13/2/4 9/2/4 34/21/4 36/21/4 35/22/4
f 34/21/4 9/2/4 10/1/4 33/20/4
f 7/6/5 6/5/5 18/5/5 19/6/5
f 28/15/4 26/14/4 37/14/4 38/15/4
f 34/23/6 22/24/6 23/25/6 36/26/6
f 24/27/5 21/28/5 33/29/5 35/30/5
f 29/31/5 25/32/5 27/33/5 32/34/5
f 26/35/2 25/36/2 29/37/2 30/38/2
f 33/39/2 21/40/2 22/41/2 34/42/2
f 36/43/1 23/44/1 24/45/1 35/46/1
f 28/47/1 31/48/1 32/49/1 27/50/1
f 40/51/6 38/52/6 37/53/6 39/54/6
f 30/18/3 31/18/3 40/18/3 39/18/3
f 31/48/2 28/47/2 38/47/2 40/48/2
f 26/35/1 30/38/1 39/38/1 37/35/1
