# Blender 4.5.2 LTS
# www.blender.org
mtllib Living2.mtl
o Plane
v -2.539010 0.000000 3.830185
v 2.539010 0.000000 3.830185
v -2.539010 0.000000 -3.830185
v 2.539010 0.000000 -3.830185
v -2.370801 0.035266 -3.576436
v -2.370801 0.035266 3.576436
v 2.370801 0.035266 3.576436
v 2.370801 0.035266 -3.576436
v -2.539010 0.035266 -3.830185
v -2.539010 0.035266 3.830185
v 2.539010 0.035266 3.830185
v 2.539010 0.035266 -3.830185
v -2.539010 2.214156 -3.830185
v -2.539010 2.214156 3.830185
v 2.539010 2.214156 3.830185
v 2.539010 2.214156 -3.830185
v -2.370801 2.214156 -3.576436
v -2.370801 2.214156 3.576436
v 2.370801 2.214156 3.576436
v 2.370801 2.214156 -3.576436
v 2.370801 0.036355 0.456925
v 2.370801 0.036355 -0.456925
v 2.370801 2.036355 0.456925
v 2.370801 2.036355 -0.456925
v 2.539010 0.036355 0.456925
v 2.539010 0.036355 -0.456925
v 2.539010 2.036355 -0.456925
v 2.539010 2.036355 0.456925
v -0.190409 0.036355 -3.830185
v 0.723442 0.036355 -3.830185
v -0.190409 2.036355 -3.830185
v 0.723442 2.036355 -3.830185
v -0.190409 0.036355 -3.576436
v 0.723442 0.036355 -3.576436
v 0.723442 2.036355 -3.576436
v -0.190409 2.036355 -3.576436
vn -0.0000 -1.0000 -0.0000
vn -0.0000 1.0000 -0.0000
vn 1.0000 -0.0000 -0.0000
vn -1.0000 -0.0000 -0.0000
vn -0.0000 -0.0000 -1.0000
vn -0.0000 -0.0000 1.0000
vt 0.000000 0.000000
vt 0.000000 1.000000
vt 1.000000 1.000000
vt 1.000000 0.000000
vt 0.033125 0.033125
vt 0.966875 0.033125
vt 0.966875 0.966875
vt 0.033125 0.966875
vt 0.966875 0.440352
vt 0.966875 0.440352
vt 0.966875 0.559648
vt 0.966875 0.559648
vt 0.642465 1.000000
vt 0.462503 1.000000
vt 0.462503 1.000000
vt 1.000000 0.440352
vt 1.000000 0.559648
vt 1.000000 0.440352
vt 0.642465 0.966875
vt 0.462503 0.966875
vt 0.625000 0.313179
vt 0.625000 0.292153
vt 0.375000 0.292153
vt 0.375000 0.313179
vt 0.375000 0.936821
vt 0.375000 0.957847
vt 0.625000 0.957847
vt 0.625000 0.936821
vt 0.167153 0.500000
vt 0.167153 0.750000
vt 0.188179 0.750000
vt 0.188179 0.500000
vt 0.832847 0.500000
vt 0.811821 0.500000
vt 0.811821 0.750000
vt 0.832847 0.750000
vt 0.375000 0.500000
vt 0.625000 0.250000
vt 0.625000 0.750000
vt 0.375000 1.000000
vt 0.305273 0.750000
vt 0.336991 0.750000
vt 0.336991 0.500000
vt 0.305273 0.500000
vt 0.663009 0.500000
vt 0.663009 0.750000
vt 0.694727 0.750000
vt 0.694727 0.500000
s 0
f 1/1/1 3/2/1 4/3/1 2/4/1
f 6/5/2 7/6/2 8/7/2 5/8/2
f 2/4/3 4/3/3 12/3/3 11/4/3
f 3/2/4 1/1/4 10/1/4 9/2/4
f 4/3/5 3/2/5 9/2/5 12/3/5
f 1/1/6 2/4/6 11/4/6 10/1/6
f 6/5/3 5/8/3 17/8/3 18/5/3
f 23/9/4 21/10/4 7/6/4 19/6/4 20/7/4 8/7/4 22/11/4 24/12/4
f 22/11/4 8/7/4 7/6/4 21/10/4
f 10/1/6 11/4/6 15/4/6 14/1/6
f 30/13/5 12/3/5 9/2/5 13/2/5 16/3/5 32/13/5 31/14/5 29/15/5
f 16/3/5 12/3/5 30/13/5 32/13/5
f 18/5/2 17/8/2 13/2/2 14/1/2
f 19/6/2 18/5/2 14/1/2 15/4/2
f 20/7/2 19/6/2 15/4/2 16/3/2
f 17/8/2 20/7/2 16/3/2 13/2/2
f 25/16/3 11/4/3 12/3/3 26/17/3
f 27/17/3 26/17/3 12/3/3 16/3/3 15/4/3 11/4/3 25/16/3 28/18/3
f 34/19/6 8/7/6 20/7/6 35/19/6
f 35/19/6 20/7/6 17/8/6 5/8/6 8/7/6 34/19/6 33/20/6 36/20/6
f 9/2/4 10/1/4 14/1/4 13/2/4
f 7/6/5 6/5/5 18/5/5 19/6/5
f 27/21/6 24/22/6 22/23/6 26/24/6
f 25/25/5 21/26/5 23/27/5 28/28/5
f 22/29/2 21/30/2 25/31/2 26/32/2
f 24/33/1 27/34/1 28/35/1 23/36/1
f 33/37/3 29/37/3 31/38/3 36/38/3
f 35/39/4 32/39/4 30/40/4 34/40/4
f 34/41/2 30/42/2 29/43/2 33/44/2
f 31/45/1 32/46/1 35/47/1 36/48/1
